<svg xmlns="http://www.w3.org/2000/svg" version="1.1" xmlns:xlink="http://www.w3.org/1999/xlink" xmlns:svgjs="http://svgjs.com/svgjs" width="1440" height="560" preserveAspectRatio="none" viewBox="0 0 1440 560"><g mask="url(&quot;#SvgjsMask1024&quot;)" fill="none"><rect width="1440" height="560" x="0" y="0" fill="rgba(12, 21, 42, 1)"></rect><path d="M-109.6 345.79L-109.6 345.79" stroke="rgba(0, 7, 20, 1)" stroke-width="1.5"></path><path d="M-109.6 345.79L69.48 375.4" stroke="rgba(0, 7, 20, 1)" stroke-width="1.5"></path><path d="M-109.6 345.79L92.61 558.68" stroke="rgba(0, 7, 20, 1)" stroke-width="1.5"></path><path d="M-109.6 345.79L-51.86 672.91" stroke="rgba(0, 7, 20, 1)" stroke-width="1.5"></path><path d="M-109.6 345.79L223.29 397.04" stroke="rgba(0, 7, 20, 1)" stroke-width="1.5"></path><path d="M-109.6 345.79L97.11 707.71" stroke="rgba(0, 7, 20, 1)" stroke-width="1.5"></path><path d="M-51.86 672.91L-51.86 672.91" stroke="rgba(0, 7, 20, 1)" stroke-width="1.5"></path><path d="M-51.86 672.91L97.11 707.71" stroke="rgba(0, 7, 20, 1)" stroke-width="1.5"></path><path d="M-51.86 672.91L92.61 558.68" stroke="rgba(0, 7, 20, 1)" stroke-width="1.5"></path><path d="M-51.86 672.91L239.8 675.29" stroke="rgba(0, 7, 20, 1)" stroke-width="1.5"></path><path d="M-51.86 672.91L69.48 375.4" stroke="rgba(0, 7, 20, 1)" stroke-width="1.5"></path><path d="M69.48 375.4L69.48 375.4" stroke="rgba(0, 7, 20, 1)" stroke-width="1.5"></path><path d="M69.48 375.4L223.29 397.04" stroke="rgba(0, 7, 20, 1)" stroke-width="1.5"></path><path d="M69.48 375.4L92.61 558.68" stroke="rgba(0, 7, 20, 1)" stroke-width="1.5"></path><path d="M92.61 558.68L92.61 558.68" stroke="rgba(0, 7, 20, 1)" stroke-width="1.5"></path><path d="M92.61 558.68L97.11 707.71" stroke="rgba(0, 7, 20, 1)" stroke-width="1.5"></path><path d="M92.61 558.68L239.8 675.29" stroke="rgba(0, 7, 20, 1)" stroke-width="1.5"></path><path d="M92.61 558.68L223.29 397.04" stroke="rgba(0, 7, 20, 1)" stroke-width="1.5"></path><path d="M97.11 707.71L97.11 707.71" stroke="rgba(0, 7, 20, 1)" stroke-width="1.5"></path><path d="M97.11 707.71L239.8 675.29" stroke="rgba(0, 7, 20, 1)" stroke-width="1.5"></path><path d="M97.11 707.71L378.39 707.6" stroke="rgba(0, 7, 20, 1)" stroke-width="1.5"></path><path d="M97.11 707.71L69.48 375.4" stroke="rgba(0, 7, 20, 1)" stroke-width="1.5"></path><path d="M97.11 707.71L223.29 397.04" stroke="rgba(0, 7, 20, 1)" stroke-width="1.5"></path><path d="M223.29 397.04L223.29 397.04" stroke="rgba(0, 7, 20, 1)" stroke-width="1.5"></path><path d="M223.29 397.04L412.38 353.05" stroke="rgba(0, 7, 20, 1)" stroke-width="1.5"></path><path d="M239.8 675.29L239.8 675.29" stroke="rgba(0, 7, 20, 1)" stroke-width="1.5"></path><path d="M239.8 675.29L378.39 707.6" stroke="rgba(0, 7, 20, 1)" stroke-width="1.5"></path><path d="M239.8 675.29L223.29 397.04" stroke="rgba(0, 7, 20, 1)" stroke-width="1.5"></path><path d="M412.38 353.05L412.38 353.05" stroke="rgba(0, 7, 20, 1)" stroke-width="1.5"></path><path d="M412.38 353.05L559.56 392.3" stroke="rgba(0, 7, 20, 1)" stroke-width="1.5"></path><path d="M378.39 707.6L378.39 707.6" stroke="rgba(0, 7, 20, 1)" stroke-width="1.5"></path><path d="M378.39 707.6L562.25 685.42" stroke="rgba(0, 7, 20, 1)" stroke-width="1.5"></path><path d="M378.39 707.6L544 522.46" stroke="rgba(0, 7, 20, 1)" stroke-width="1.5"></path><path d="M378.39 707.6L679.89 652.06" stroke="rgba(0, 7, 20, 1)" stroke-width="1.5"></path><path d="M559.56 392.3L559.56 392.3" stroke="rgba(0, 7, 20, 1)" stroke-width="1.5"></path><path d="M559.56 392.3L670.45 339.78" stroke="rgba(0, 7, 20, 1)" stroke-width="1.5"></path><path d="M559.56 392.3L544 522.46" stroke="rgba(0, 7, 20, 1)" stroke-width="1.5"></path><path d="M544 522.46L544 522.46" stroke="rgba(0, 7, 20, 1)" stroke-width="1.5"></path><path d="M544 522.46L562.25 685.42" stroke="rgba(0, 7, 20, 1)" stroke-width="1.5"></path><path d="M544 522.46L707.52 487.55" stroke="rgba(0, 7, 20, 1)" stroke-width="1.5"></path><path d="M562.25 685.42L562.25 685.42" stroke="rgba(0, 7, 20, 1)" stroke-width="1.5"></path><path d="M562.25 685.42L679.89 652.06" stroke="rgba(0, 7, 20, 1)" stroke-width="1.5"></path><path d="M562.25 685.42L707.52 487.55" stroke="rgba(0, 7, 20, 1)" stroke-width="1.5"></path><path d="M562.25 685.42L843.38 705.77" stroke="rgba(0, 7, 20, 1)" stroke-width="1.5"></path><path d="M670.45 339.78L670.45 339.78" stroke="rgba(0, 7, 20, 1)" stroke-width="1.5"></path><path d="M670.45 339.78L707.52 487.55" stroke="rgba(0, 7, 20, 1)" stroke-width="1.5"></path><path d="M670.45 339.78L825.88 341.96" stroke="rgba(0, 7, 20, 1)" stroke-width="1.5"></path><path d="M670.45 339.78L806.27 252.57" stroke="rgba(0, 7, 20, 1)" stroke-width="1.5"></path><path d="M670.45 339.78L791.11 488.97" stroke="rgba(0, 7, 20, 1)" stroke-width="1.5"></path><path d="M707.52 487.55L707.52 487.55" stroke="rgba(0, 7, 20, 1)" stroke-width="1.5"></path><path d="M707.52 487.55L791.11 488.97" stroke="rgba(0, 7, 20, 1)" stroke-width="1.5"></path><path d="M707.52 487.55L679.89 652.06" stroke="rgba(0, 7, 20, 1)" stroke-width="1.5"></path><path d="M707.52 487.55L559.56 392.3" stroke="rgba(0, 7, 20, 1)" stroke-width="1.5"></path><path d="M707.52 487.55L825.88 341.96" stroke="rgba(0, 7, 20, 1)" stroke-width="1.5"></path><path d="M679.89 652.06L679.89 652.06" stroke="rgba(0, 7, 20, 1)" stroke-width="1.5"></path><path d="M679.89 652.06L843.38 705.77" stroke="rgba(0, 7, 20, 1)" stroke-width="1.5"></path><path d="M679.89 652.06L544 522.46" stroke="rgba(0, 7, 20, 1)" stroke-width="1.5"></path><path d="M679.89 652.06L791.11 488.97" stroke="rgba(0, 7, 20, 1)" stroke-width="1.5"></path><path d="M679.89 652.06L939.95 641.08" stroke="rgba(0, 7, 20, 1)" stroke-width="1.5"></path><path d="M806.27 252.57L806.27 252.57" stroke="rgba(0, 7, 20, 1)" stroke-width="1.5"></path><path d="M806.27 252.57L825.88 341.96" stroke="rgba(0, 7, 20, 1)" stroke-width="1.5"></path><path d="M806.27 252.57L968.49 207.64" stroke="rgba(0, 7, 20, 1)" stroke-width="1.5"></path><path d="M806.27 252.57L942.01 375.52" stroke="rgba(0, 7, 20, 1)" stroke-width="1.5"></path><path d="M806.27 252.57L791.11 488.97" stroke="rgba(0, 7, 20, 1)" stroke-width="1.5"></path><path d="M806.27 252.57L965.26 71.39" stroke="rgba(0, 7, 20, 1)" stroke-width="1.5"></path><path d="M825.88 341.96L825.88 341.96" stroke="rgba(0, 7, 20, 1)" stroke-width="1.5"></path><path d="M825.88 341.96L942.01 375.52" stroke="rgba(0, 7, 20, 1)" stroke-width="1.5"></path><path d="M791.11 488.97L791.11 488.97" stroke="rgba(0, 7, 20, 1)" stroke-width="1.5"></path><path d="M791.11 488.97L825.88 341.96" stroke="rgba(0, 7, 20, 1)" stroke-width="1.5"></path><path d="M791.11 488.97L942.01 375.52" stroke="rgba(0, 7, 20, 1)" stroke-width="1.5"></path><path d="M791.11 488.97L983.21 506.4" stroke="rgba(0, 7, 20, 1)" stroke-width="1.5"></path><path d="M843.38 705.77L843.38 705.77" stroke="rgba(0, 7, 20, 1)" stroke-width="1.5"></path><path d="M843.38 705.77L939.95 641.08" stroke="rgba(0, 7, 20, 1)" stroke-width="1.5"></path><path d="M958.58 -98.5L958.58 -98.5" stroke="rgba(0, 7, 20, 1)" stroke-width="1.5"></path><path d="M958.58 -98.5L1104.3 -106.65" stroke="rgba(0, 7, 20, 1)" stroke-width="1.5"></path><path d="M958.58 -98.5L965.26 71.39" stroke="rgba(0, 7, 20, 1)" stroke-width="1.5"></path><path d="M958.58 -98.5L1114.4 49.68" stroke="rgba(0, 7, 20, 1)" stroke-width="1.5"></path><path d="M958.58 -98.5L1238.52 -43.9" stroke="rgba(0, 7, 20, 1)" stroke-width="1.5"></path><path d="M958.58 -98.5L968.49 207.64" stroke="rgba(0, 7, 20, 1)" stroke-width="1.5"></path><path d="M958.58 -98.5L1268.32 71.15" stroke="rgba(0, 7, 20, 1)" stroke-width="1.5"></path><path d="M965.26 71.39L965.26 71.39" stroke="rgba(0, 7, 20, 1)" stroke-width="1.5"></path><path d="M965.26 71.39L968.49 207.64" stroke="rgba(0, 7, 20, 1)" stroke-width="1.5"></path><path d="M965.26 71.39L1114.4 49.68" stroke="rgba(0, 7, 20, 1)" stroke-width="1.5"></path><path d="M965.26 71.39L1105.75 228.87" stroke="rgba(0, 7, 20, 1)" stroke-width="1.5"></path><path d="M965.26 71.39L1104.3 -106.65" stroke="rgba(0, 7, 20, 1)" stroke-width="1.5"></path><path d="M968.49 207.64L968.49 207.64" stroke="rgba(0, 7, 20, 1)" stroke-width="1.5"></path><path d="M968.49 207.64L1105.75 228.87" stroke="rgba(0, 7, 20, 1)" stroke-width="1.5"></path><path d="M968.49 207.64L942.01 375.52" stroke="rgba(0, 7, 20, 1)" stroke-width="1.5"></path><path d="M942.01 375.52L942.01 375.52" stroke="rgba(0, 7, 20, 1)" stroke-width="1.5"></path><path d="M942.01 375.52L983.21 506.4" stroke="rgba(0, 7, 20, 1)" stroke-width="1.5"></path><path d="M942.01 375.52L1109.27 350.45" stroke="rgba(0, 7, 20, 1)" stroke-width="1.5"></path><path d="M983.21 506.4L983.21 506.4" stroke="rgba(0, 7, 20, 1)" stroke-width="1.5"></path><path d="M983.21 506.4L1113.32 489.21" stroke="rgba(0, 7, 20, 1)" stroke-width="1.5"></path><path d="M983.21 506.4L939.95 641.08" stroke="rgba(0, 7, 20, 1)" stroke-width="1.5"></path><path d="M983.21 506.4L1109.27 350.45" stroke="rgba(0, 7, 20, 1)" stroke-width="1.5"></path><path d="M939.95 641.08L939.95 641.08" stroke="rgba(0, 7, 20, 1)" stroke-width="1.5"></path><path d="M939.95 641.08L791.11 488.97" stroke="rgba(0, 7, 20, 1)" stroke-width="1.5"></path><path d="M1104.3 -106.65L1104.3 -106.65" stroke="rgba(0, 7, 20, 1)" stroke-width="1.5"></path><path d="M1104.3 -106.65L1238.52 -43.9" stroke="rgba(0, 7, 20, 1)" stroke-width="1.5"></path><path d="M1104.3 -106.65L1114.4 49.68" stroke="rgba(0, 7, 20, 1)" stroke-width="1.5"></path><path d="M1114.4 49.68L1114.4 49.68" stroke="rgba(0, 7, 20, 1)" stroke-width="1.5"></path><path d="M1114.4 49.68L1268.32 71.15" stroke="rgba(0, 7, 20, 1)" stroke-width="1.5"></path><path d="M1114.4 49.68L1238.52 -43.9" stroke="rgba(0, 7, 20, 1)" stroke-width="1.5"></path><path d="M1105.75 228.87L1105.75 228.87" stroke="rgba(0, 7, 20, 1)" stroke-width="1.5"></path><path d="M1105.75 228.87L1109.27 350.45" stroke="rgba(0, 7, 20, 1)" stroke-width="1.5"></path><path d="M1105.75 228.87L1260.29 210.16" stroke="rgba(0, 7, 20, 1)" stroke-width="1.5"></path><path d="M1105.75 228.87L1114.4 49.68" stroke="rgba(0, 7, 20, 1)" stroke-width="1.5"></path><path d="M1105.75 228.87L942.01 375.52" stroke="rgba(0, 7, 20, 1)" stroke-width="1.5"></path><path d="M1109.27 350.45L1109.27 350.45" stroke="rgba(0, 7, 20, 1)" stroke-width="1.5"></path><path d="M1113.32 489.21L1113.32 489.21" stroke="rgba(0, 7, 20, 1)" stroke-width="1.5"></path><path d="M1113.32 489.21L1109.27 350.45" stroke="rgba(0, 7, 20, 1)" stroke-width="1.5"></path><path d="M1113.32 489.21L1154.52 658.89" stroke="rgba(0, 7, 20, 1)" stroke-width="1.5"></path><path d="M1113.32 489.21L1289.15 505.25" stroke="rgba(0, 7, 20, 1)" stroke-width="1.5"></path><path d="M1113.32 489.21L942.01 375.52" stroke="rgba(0, 7, 20, 1)" stroke-width="1.5"></path><path d="M1113.32 489.21L939.95 641.08" stroke="rgba(0, 7, 20, 1)" stroke-width="1.5"></path><path d="M1154.52 658.89L1154.52 658.89" stroke="rgba(0, 7, 20, 1)" stroke-width="1.5"></path><path d="M1154.52 658.89L1281.89 659.09" stroke="rgba(0, 7, 20, 1)" stroke-width="1.5"></path><path d="M1154.52 658.89L1289.15 505.25" stroke="rgba(0, 7, 20, 1)" stroke-width="1.5"></path><path d="M1154.52 658.89L939.95 641.08" stroke="rgba(0, 7, 20, 1)" stroke-width="1.5"></path><path d="M1154.52 658.89L983.21 506.4" stroke="rgba(0, 7, 20, 1)" stroke-width="1.5"></path><path d="M1238.52 -43.9L1238.52 -43.9" stroke="rgba(0, 7, 20, 1)" stroke-width="1.5"></path><path d="M1238.52 -43.9L1268.32 71.15" stroke="rgba(0, 7, 20, 1)" stroke-width="1.5"></path><path d="M1268.32 71.15L1268.32 71.15" stroke="rgba(0, 7, 20, 1)" stroke-width="1.5"></path><path d="M1268.32 71.15L1260.29 210.16" stroke="rgba(0, 7, 20, 1)" stroke-width="1.5"></path><path d="M1268.32 71.15L1411.42 41.41" stroke="rgba(0, 7, 20, 1)" stroke-width="1.5"></path><path d="M1260.29 210.16L1260.29 210.16" stroke="rgba(0, 7, 20, 1)" stroke-width="1.5"></path><path d="M1260.29 210.16L1295.13 344.02" stroke="rgba(0, 7, 20, 1)" stroke-width="1.5"></path><path d="M1260.29 210.16L1425.59 221.78" stroke="rgba(0, 7, 20, 1)" stroke-width="1.5"></path><path d="M1260.29 210.16L1109.27 350.45" stroke="rgba(0, 7, 20, 1)" stroke-width="1.5"></path><path d="M1260.29 210.16L1425.59 343.13" stroke="rgba(0, 7, 20, 1)" stroke-width="1.5"></path><path d="M1295.13 344.02L1295.13 344.02" stroke="rgba(0, 7, 20, 1)" stroke-width="1.5"></path><path d="M1295.13 344.02L1425.59 343.13" stroke="rgba(0, 7, 20, 1)" stroke-width="1.5"></path><path d="M1295.13 344.02L1289.15 505.25" stroke="rgba(0, 7, 20, 1)" stroke-width="1.5"></path><path d="M1289.15 505.25L1289.15 505.25" stroke="rgba(0, 7, 20, 1)" stroke-width="1.5"></path><path d="M1289.15 505.25L1411.94 561.55" stroke="rgba(0, 7, 20, 1)" stroke-width="1.5"></path><path d="M1289.15 505.25L1281.89 659.09" stroke="rgba(0, 7, 20, 1)" stroke-width="1.5"></path><path d="M1281.89 659.09L1281.89 659.09" stroke="rgba(0, 7, 20, 1)" stroke-width="1.5"></path><path d="M1281.89 659.09L1397.81 683.15" stroke="rgba(0, 7, 20, 1)" stroke-width="1.5"></path><path d="M1281.89 659.09L1411.94 561.55" stroke="rgba(0, 7, 20, 1)" stroke-width="1.5"></path><path d="M1411.42 41.41L1411.42 41.41" stroke="rgba(0, 7, 20, 1)" stroke-width="1.5"></path><path d="M1411.42 41.41L1544.32 110.07" stroke="rgba(0, 7, 20, 1)" stroke-width="1.5"></path><path d="M1425.59 221.78L1425.59 221.78" stroke="rgba(0, 7, 20, 1)" stroke-width="1.5"></path><path d="M1425.59 221.78L1425.59 343.13" stroke="rgba(0, 7, 20, 1)" stroke-width="1.5"></path><path d="M1425.59 221.78L1584.69 252.42" stroke="rgba(0, 7, 20, 1)" stroke-width="1.5"></path><path d="M1425.59 221.78L1544.32 110.07" stroke="rgba(0, 7, 20, 1)" stroke-width="1.5"></path><path d="M1425.59 221.78L1295.13 344.02" stroke="rgba(0, 7, 20, 1)" stroke-width="1.5"></path><path d="M1425.59 221.78L1411.42 41.41" stroke="rgba(0, 7, 20, 1)" stroke-width="1.5"></path><path d="M1425.59 343.13L1425.59 343.13" stroke="rgba(0, 7, 20, 1)" stroke-width="1.5"></path><path d="M1425.59 343.13L1539.38 377.47" stroke="rgba(0, 7, 20, 1)" stroke-width="1.5"></path><path d="M1425.59 343.13L1584.69 252.42" stroke="rgba(0, 7, 20, 1)" stroke-width="1.5"></path><path d="M1425.59 343.13L1289.15 505.25" stroke="rgba(0, 7, 20, 1)" stroke-width="1.5"></path><path d="M1411.94 561.55L1411.94 561.55" stroke="rgba(0, 7, 20, 1)" stroke-width="1.5"></path><path d="M1411.94 561.55L1397.81 683.15" stroke="rgba(0, 7, 20, 1)" stroke-width="1.5"></path><path d="M1411.94 561.55L1572.86 644.69" stroke="rgba(0, 7, 20, 1)" stroke-width="1.5"></path><path d="M1411.94 561.55L1609.59 540.66" stroke="rgba(0, 7, 20, 1)" stroke-width="1.5"></path><path d="M1397.81 683.15L1397.81 683.15" stroke="rgba(0, 7, 20, 1)" stroke-width="1.5"></path><path d="M1397.81 683.15L1572.86 644.69" stroke="rgba(0, 7, 20, 1)" stroke-width="1.5"></path><path d="M1397.81 683.15L1289.15 505.25" stroke="rgba(0, 7, 20, 1)" stroke-width="1.5"></path><path d="M1397.81 683.15L1154.52 658.89" stroke="rgba(0, 7, 20, 1)" stroke-width="1.5"></path><path d="M1397.81 683.15L1609.59 540.66" stroke="rgba(0, 7, 20, 1)" stroke-width="1.5"></path><path d="M1554.15 -93.24L1554.15 -93.24" stroke="rgba(0, 7, 20, 1)" stroke-width="1.5"></path><path d="M1554.15 -93.24L1411.42 41.41" stroke="rgba(0, 7, 20, 1)" stroke-width="1.5"></path><path d="M1554.15 -93.24L1544.32 110.07" stroke="rgba(0, 7, 20, 1)" stroke-width="1.5"></path><path d="M1544.32 110.07L1544.32 110.07" stroke="rgba(0, 7, 20, 1)" stroke-width="1.5"></path><path d="M1544.32 110.07L1584.69 252.42" stroke="rgba(0, 7, 20, 1)" stroke-width="1.5"></path><path d="M1544.32 110.07L1425.59 343.13" stroke="rgba(0, 7, 20, 1)" stroke-width="1.5"></path><path d="M1584.69 252.42L1584.69 252.42" stroke="rgba(0, 7, 20, 1)" stroke-width="1.5"></path><path d="M1584.69 252.42L1539.38 377.47" stroke="rgba(0, 7, 20, 1)" stroke-width="1.5"></path><path d="M1539.38 377.47L1539.38 377.47" stroke="rgba(0, 7, 20, 1)" stroke-width="1.5"></path><path d="M1609.59 540.66L1609.59 540.66" stroke="rgba(0, 7, 20, 1)" stroke-width="1.5"></path><path d="M1609.59 540.66L1572.86 644.69" stroke="rgba(0, 7, 20, 1)" stroke-width="1.5"></path><path d="M1609.59 540.66L1539.38 377.47" stroke="rgba(0, 7, 20, 1)" stroke-width="1.5"></path><path d="M1572.86 644.69L1572.86 644.69" stroke="rgba(0, 7, 20, 1)" stroke-width="1.5"></path><path d="M1572.86 644.69L1539.38 377.47" stroke="rgba(0, 7, 20, 1)" stroke-width="1.5"></path><circle r="5" cx="-109.6" cy="345.79" fill="rgba(0, 7, 20, 1)"></circle><circle r="5" cx="-51.86" cy="672.91" fill="rgba(0, 7, 20, 1)"></circle><circle r="5" cx="69.48" cy="375.4" fill="rgba(0, 7, 20, 1)"></circle><circle r="5" cx="92.61" cy="558.68" fill="rgba(0, 7, 20, 1)"></circle><circle r="5" cx="97.11" cy="707.71" fill="rgba(0, 7, 20, 1)"></circle><circle r="5" cx="223.29" cy="397.04" fill="rgba(0, 7, 20, 1)"></circle><circle r="5" cx="239.8" cy="675.29" fill="rgba(0, 7, 20, 1)"></circle><circle r="5" cx="412.38" cy="353.05" fill="rgba(0, 7, 20, 1)"></circle><circle r="5" cx="378.39" cy="707.6" fill="rgba(0, 7, 20, 1)"></circle><circle r="5" cx="559.56" cy="392.3" fill="rgba(0, 7, 20, 1)"></circle><circle r="5" cx="544" cy="522.46" fill="rgba(0, 7, 20, 1)"></circle><circle r="5" cx="562.25" cy="685.42" fill="rgba(0, 7, 20, 1)"></circle><circle r="5" cx="670.45" cy="339.78" fill="rgba(0, 7, 20, 1)"></circle><circle r="5" cx="707.52" cy="487.55" fill="rgba(0, 7, 20, 1)"></circle><circle r="5" cx="679.89" cy="652.06" fill="rgba(0, 7, 20, 1)"></circle><circle r="5" cx="806.27" cy="252.57" fill="rgba(0, 7, 20, 1)"></circle><circle r="5" cx="825.88" cy="341.96" fill="rgba(0, 7, 20, 1)"></circle><circle r="5" cx="791.11" cy="488.97" fill="rgba(0, 7, 20, 1)"></circle><circle r="5" cx="843.38" cy="705.77" fill="rgba(0, 7, 20, 1)"></circle><circle r="5" cx="958.58" cy="-98.5" fill="rgba(0, 7, 20, 1)"></circle><circle r="5" cx="965.26" cy="71.39" fill="rgba(0, 7, 20, 1)"></circle><circle r="5" cx="968.49" cy="207.64" fill="rgba(0, 7, 20, 1)"></circle><circle r="5" cx="942.01" cy="375.52" fill="rgba(0, 7, 20, 1)"></circle><circle r="5" cx="983.21" cy="506.4" fill="rgba(0, 7, 20, 1)"></circle><circle r="5" cx="939.95" cy="641.08" fill="rgba(0, 7, 20, 1)"></circle><circle r="5" cx="1104.3" cy="-106.65" fill="rgba(0, 7, 20, 1)"></circle><circle r="5" cx="1114.4" cy="49.68" fill="rgba(0, 7, 20, 1)"></circle><circle r="5" cx="1105.75" cy="228.87" fill="rgba(0, 7, 20, 1)"></circle><circle r="5" cx="1109.27" cy="350.45" fill="rgba(0, 7, 20, 1)"></circle><circle r="5" cx="1113.32" cy="489.21" fill="rgba(0, 7, 20, 1)"></circle><circle r="5" cx="1154.52" cy="658.89" fill="rgba(0, 7, 20, 1)"></circle><circle r="5" cx="1238.52" cy="-43.9" fill="rgba(0, 7, 20, 1)"></circle><circle r="5" cx="1268.32" cy="71.15" fill="rgba(0, 7, 20, 1)"></circle><circle r="5" cx="1260.29" cy="210.16" fill="rgba(0, 7, 20, 1)"></circle><circle r="5" cx="1295.13" cy="344.02" fill="rgba(0, 7, 20, 1)"></circle><circle r="5" cx="1289.15" cy="505.25" fill="rgba(0, 7, 20, 1)"></circle><circle r="5" cx="1281.89" cy="659.09" fill="rgba(0, 7, 20, 1)"></circle><circle r="5" cx="1411.42" cy="41.41" fill="rgba(0, 7, 20, 1)"></circle><circle r="5" cx="1425.59" cy="221.78" fill="rgba(0, 7, 20, 1)"></circle><circle r="5" cx="1425.59" cy="343.13" fill="rgba(0, 7, 20, 1)"></circle><circle r="5" cx="1411.94" cy="561.55" fill="rgba(0, 7, 20, 1)"></circle><circle r="5" cx="1397.81" cy="683.15" fill="rgba(0, 7, 20, 1)"></circle><circle r="5" cx="1554.15" cy="-93.24" fill="rgba(0, 7, 20, 1)"></circle><circle r="5" cx="1544.32" cy="110.07" fill="rgba(0, 7, 20, 1)"></circle><circle r="5" cx="1584.69" cy="252.42" fill="rgba(0, 7, 20, 1)"></circle><circle r="5" cx="1539.38" cy="377.47" fill="rgba(0, 7, 20, 1)"></circle><circle r="5" cx="1609.59" cy="540.66" fill="rgba(0, 7, 20, 1)"></circle><circle r="5" cx="1572.86" cy="644.69" fill="rgba(0, 7, 20, 1)"></circle><path d="M205.64 684.36L205.64 684.36" stroke="hsl(228.70000000000005, 36.1%, 92.5%)" stroke-width="1.5"></path><path d="M205.64 684.36L216.97 510.62" stroke="hsl(228.70000000000005, 36.1%, 92.5%)" stroke-width="1.5"></path><path d="M205.64 684.36L400.88 684.2" stroke="hsl(228.70000000000005, 36.1%, 92.5%)" stroke-width="1.5"></path><path d="M205.64 684.36L55.3 556.11" stroke="hsl(228.70000000000005, 36.1%, 92.5%)" stroke-width="1.5"></path><path d="M205.64 684.36L369.93 522.37" stroke="hsl(228.70000000000005, 36.1%, 92.5%)" stroke-width="1.5"></path><path d="M205.64 684.36L-79.86 638.6" stroke="hsl(228.70000000000005, 36.1%, 92.5%)" stroke-width="1.5"></path><path d="M205.64 684.36L-64.96 501.68" stroke="hsl(228.70000000000005, 36.1%, 92.5%)" stroke-width="1.5"></path><path d="M802.99 684.18L802.99 684.18" stroke="hsl(228.70000000000005, 36.1%, 92.5%)" stroke-width="1.5"></path><path d="M802.99 684.18L670.71 638.88" stroke="hsl(228.70000000000005, 36.1%, 92.5%)" stroke-width="1.5"></path><path d="M802.99 684.18L850.71 507.7" stroke="hsl(228.70000000000005, 36.1%, 92.5%)" stroke-width="1.5"></path><path d="M802.99 684.18L680.98 503.65" stroke="hsl(228.70000000000005, 36.1%, 92.5%)" stroke-width="1.5"></path><path d="M802.99 684.18L987.85 518.23" stroke="hsl(228.70000000000005, 36.1%, 92.5%)" stroke-width="1.5"></path><path d="M802.99 684.18L552.68 683.26" stroke="hsl(228.70000000000005, 36.1%, 92.5%)" stroke-width="1.5"></path><path d="M802.99 684.18L1107.57 688.07" stroke="hsl(228.70000000000005, 36.1%, 92.5%)" stroke-width="1.5"></path><path d="M1399.24 345.37L1399.24 345.37" stroke="hsl(228.70000000000005, 36.1%, 92.5%)" stroke-width="1.5"></path><path d="M1399.24 345.37L1395.31 489.02" stroke="hsl(228.70000000000005, 36.1%, 92.5%)" stroke-width="1.5"></path><path d="M1399.24 345.37L1443.97 193.5" stroke="hsl(228.70000000000005, 36.1%, 92.5%)" stroke-width="1.5"></path><path d="M1399.24 345.37L1238.01 382.59" stroke="hsl(228.70000000000005, 36.1%, 92.5%)" stroke-width="1.5"></path><path d="M1399.24 345.37L1260.13 210.54" stroke="hsl(228.70000000000005, 36.1%, 92.5%)" stroke-width="1.5"></path><path d="M1397.32 638.73L1397.32 638.73" stroke="hsl(228.70000000000005, 36.1%, 92.5%)" stroke-width="1.5"></path><path d="M1397.32 638.73L1311.14 551.63" stroke="hsl(228.70000000000005, 36.1%, 92.5%)" stroke-width="1.5"></path><path d="M1603.07 102.16L1603.07 102.16" stroke="hsl(228.70000000000005, 36.1%, 92.5%)" stroke-width="1.5"></path><path d="M1603.07 102.16L1568.8 202.35" stroke="hsl(228.70000000000005, 36.1%, 92.5%)" stroke-width="1.5"></path><path d="M1603.07 102.16L1462.23 68.66" stroke="hsl(228.70000000000005, 36.1%, 92.5%)" stroke-width="1.5"></path><path d="M1603.07 102.16L1546.53 -67.79" stroke="hsl(228.70000000000005, 36.1%, 92.5%)" stroke-width="1.5"></path><path d="M1603.07 102.16L1443.97 193.5" stroke="hsl(228.70000000000005, 36.1%, 92.5%)" stroke-width="1.5"></path><path d="M-64.96 501.68L-64.96 501.68" stroke="hsl(228.70000000000005, 36.1%, 92.5%)" stroke-width="1.5"></path><path d="M-64.96 501.68L55.3 556.11" stroke="hsl(228.70000000000005, 36.1%, 92.5%)" stroke-width="1.5"></path><path d="M-64.96 501.68L-79.86 638.6" stroke="hsl(228.70000000000005, 36.1%, 92.5%)" stroke-width="1.5"></path><path d="M-64.96 501.68L216.97 510.62" stroke="hsl(228.70000000000005, 36.1%, 92.5%)" stroke-width="1.5"></path><path d="M-64.96 501.68L369.93 522.37" stroke="hsl(228.70000000000005, 36.1%, 92.5%)" stroke-width="1.5"></path><path d="M-79.86 638.6L-79.86 638.6" stroke="hsl(228.70000000000005, 36.1%, 92.5%)" stroke-width="1.5"></path><path d="M-79.86 638.6L55.3 556.11" stroke="hsl(228.70000000000005, 36.1%, 92.5%)" stroke-width="1.5"></path><path d="M-79.86 638.6L216.97 510.62" stroke="hsl(228.70000000000005, 36.1%, 92.5%)" stroke-width="1.5"></path><path d="M-79.86 638.6L369.93 522.37" stroke="hsl(228.70000000000005, 36.1%, 92.5%)" stroke-width="1.5"></path><path d="M55.3 556.11L55.3 556.11" stroke="hsl(228.70000000000005, 36.1%, 92.5%)" stroke-width="1.5"></path><path d="M55.3 556.11L216.97 510.62" stroke="hsl(228.70000000000005, 36.1%, 92.5%)" stroke-width="1.5"></path><path d="M55.3 556.11L369.93 522.37" stroke="hsl(228.70000000000005, 36.1%, 92.5%)" stroke-width="1.5"></path><path d="M216.97 510.62L216.97 510.62" stroke="hsl(228.70000000000005, 36.1%, 92.5%)" stroke-width="1.5"></path><path d="M216.97 510.62L369.93 522.37" stroke="hsl(228.70000000000005, 36.1%, 92.5%)" stroke-width="1.5"></path><path d="M216.97 510.62L400.88 684.2" stroke="hsl(228.70000000000005, 36.1%, 92.5%)" stroke-width="1.5"></path><path d="M369.93 522.37L369.93 522.37" stroke="hsl(228.70000000000005, 36.1%, 92.5%)" stroke-width="1.5"></path><path d="M369.93 522.37L518.9 533.08" stroke="hsl(228.70000000000005, 36.1%, 92.5%)" stroke-width="1.5"></path><path d="M369.93 522.37L400.88 684.2" stroke="hsl(228.70000000000005, 36.1%, 92.5%)" stroke-width="1.5"></path><path d="M400.88 684.2L400.88 684.2" stroke="hsl(228.70000000000005, 36.1%, 92.5%)" stroke-width="1.5"></path><path d="M400.88 684.2L552.68 683.26" stroke="hsl(228.70000000000005, 36.1%, 92.5%)" stroke-width="1.5"></path><path d="M400.88 684.2L518.9 533.08" stroke="hsl(228.70000000000005, 36.1%, 92.5%)" stroke-width="1.5"></path><path d="M400.88 684.2L670.71 638.88" stroke="hsl(228.70000000000005, 36.1%, 92.5%)" stroke-width="1.5"></path><path d="M518.9 533.08L518.9 533.08" stroke="hsl(228.70000000000005, 36.1%, 92.5%)" stroke-width="1.5"></path><path d="M518.9 533.08L552.68 683.26" stroke="hsl(228.70000000000005, 36.1%, 92.5%)" stroke-width="1.5"></path><path d="M518.9 533.08L680.98 503.65" stroke="hsl(228.70000000000005, 36.1%, 92.5%)" stroke-width="1.5"></path><path d="M518.9 533.08L670.71 638.88" stroke="hsl(228.70000000000005, 36.1%, 92.5%)" stroke-width="1.5"></path><path d="M518.9 533.08L666.64 406.48" stroke="hsl(228.70000000000005, 36.1%, 92.5%)" stroke-width="1.5"></path><path d="M552.68 683.26L552.68 683.26" stroke="hsl(228.70000000000005, 36.1%, 92.5%)" stroke-width="1.5"></path><path d="M552.68 683.26L670.71 638.88" stroke="hsl(228.70000000000005, 36.1%, 92.5%)" stroke-width="1.5"></path><path d="M666.64 406.48L666.64 406.48" stroke="hsl(228.70000000000005, 36.1%, 92.5%)" stroke-width="1.5"></path><path d="M666.64 406.48L680.98 503.65" stroke="hsl(228.70000000000005, 36.1%, 92.5%)" stroke-width="1.5"></path><path d="M666.64 406.48L850.71 507.7" stroke="hsl(228.70000000000005, 36.1%, 92.5%)" stroke-width="1.5"></path><path d="M680.98 503.65L680.98 503.65" stroke="hsl(228.70000000000005, 36.1%, 92.5%)" stroke-width="1.5"></path><path d="M680.98 503.65L670.71 638.88" stroke="hsl(228.70000000000005, 36.1%, 92.5%)" stroke-width="1.5"></path><path d="M680.98 503.65L850.71 507.7" stroke="hsl(228.70000000000005, 36.1%, 92.5%)" stroke-width="1.5"></path><path d="M670.71 638.88L670.71 638.88" stroke="hsl(228.70000000000005, 36.1%, 92.5%)" stroke-width="1.5"></path><path d="M850.71 507.7L850.71 507.7" stroke="hsl(228.70000000000005, 36.1%, 92.5%)" stroke-width="1.5"></path><path d="M850.71 507.7L987.85 518.23" stroke="hsl(228.70000000000005, 36.1%, 92.5%)" stroke-width="1.5"></path><path d="M993.51 408.75L993.51 408.75" stroke="hsl(228.70000000000005, 36.1%, 92.5%)" stroke-width="1.5"></path><path d="M993.51 408.75L987.85 518.23" stroke="hsl(228.70000000000005, 36.1%, 92.5%)" stroke-width="1.5"></path><path d="M993.51 408.75L1102.01 362.46" stroke="hsl(228.70000000000005, 36.1%, 92.5%)" stroke-width="1.5"></path><path d="M993.51 408.75L1114.49 522.37" stroke="hsl(228.70000000000005, 36.1%, 92.5%)" stroke-width="1.5"></path><path d="M987.85 518.23L987.85 518.23" stroke="hsl(228.70000000000005, 36.1%, 92.5%)" stroke-width="1.5"></path><path d="M987.85 518.23L1114.49 522.37" stroke="hsl(228.70000000000005, 36.1%, 92.5%)" stroke-width="1.5"></path><path d="M987.85 518.23L1102.01 362.46" stroke="hsl(228.70000000000005, 36.1%, 92.5%)" stroke-width="1.5"></path><path d="M987.85 518.23L1107.57 688.07" stroke="hsl(228.70000000000005, 36.1%, 92.5%)" stroke-width="1.5"></path><path d="M1100.54 221.79L1100.54 221.79" stroke="hsl(228.70000000000005, 36.1%, 92.5%)" stroke-width="1.5"></path><path d="M1100.54 221.79L1102.01 362.46" stroke="hsl(228.70000000000005, 36.1%, 92.5%)" stroke-width="1.5"></path><path d="M1100.54 221.79L1260.13 210.54" stroke="hsl(228.70000000000005, 36.1%, 92.5%)" stroke-width="1.5"></path><path d="M1100.54 221.79L1238.01 382.59" stroke="hsl(228.70000000000005, 36.1%, 92.5%)" stroke-width="1.5"></path><path d="M1102.01 362.46L1102.01 362.46" stroke="hsl(228.70000000000005, 36.1%, 92.5%)" stroke-width="1.5"></path><path d="M1102.01 362.46L1238.01 382.59" stroke="hsl(228.70000000000005, 36.1%, 92.5%)" stroke-width="1.5"></path><path d="M1114.49 522.37L1114.49 522.37" stroke="hsl(228.70000000000005, 36.1%, 92.5%)" stroke-width="1.5"></path><path d="M1114.49 522.37L1102.01 362.46" stroke="hsl(228.70000000000005, 36.1%, 92.5%)" stroke-width="1.5"></path><path d="M1107.57 688.07L1107.57 688.07" stroke="hsl(228.70000000000005, 36.1%, 92.5%)" stroke-width="1.5"></path><path d="M1107.57 688.07L1263.2 683.77" stroke="hsl(228.70000000000005, 36.1%, 92.5%)" stroke-width="1.5"></path><path d="M1107.57 688.07L1114.49 522.37" stroke="hsl(228.70000000000005, 36.1%, 92.5%)" stroke-width="1.5"></path><path d="M1107.57 688.07L1311.14 551.63" stroke="hsl(228.70000000000005, 36.1%, 92.5%)" stroke-width="1.5"></path><path d="M1274.95 -99.83L1274.95 -99.83" stroke="hsl(228.70000000000005, 36.1%, 92.5%)" stroke-width="1.5"></path><path d="M1274.95 -99.83L1389.14 -71.29" stroke="hsl(228.70000000000005, 36.1%, 92.5%)" stroke-width="1.5"></path><path d="M1274.95 -99.83L1288.37 44.49" stroke="hsl(228.70000000000005, 36.1%, 92.5%)" stroke-width="1.5"></path><path d="M1274.95 -99.83L1462.23 68.66" stroke="hsl(228.70000000000005, 36.1%, 92.5%)" stroke-width="1.5"></path><path d="M1274.95 -99.83L1546.53 -67.79" stroke="hsl(228.70000000000005, 36.1%, 92.5%)" stroke-width="1.5"></path><path d="M1274.95 -99.83L1260.13 210.54" stroke="hsl(228.70000000000005, 36.1%, 92.5%)" stroke-width="1.5"></path><path d="M1288.37 44.49L1288.37 44.49" stroke="hsl(228.70000000000005, 36.1%, 92.5%)" stroke-width="1.5"></path><path d="M1288.37 44.49L1389.14 -71.29" stroke="hsl(228.70000000000005, 36.1%, 92.5%)" stroke-width="1.5"></path><path d="M1288.37 44.49L1260.13 210.54" stroke="hsl(228.70000000000005, 36.1%, 92.5%)" stroke-width="1.5"></path><path d="M1288.37 44.49L1462.23 68.66" stroke="hsl(228.70000000000005, 36.1%, 92.5%)" stroke-width="1.5"></path><path d="M1260.13 210.54L1260.13 210.54" stroke="hsl(228.70000000000005, 36.1%, 92.5%)" stroke-width="1.5"></path><path d="M1260.13 210.54L1238.01 382.59" stroke="hsl(228.70000000000005, 36.1%, 92.5%)" stroke-width="1.5"></path><path d="M1238.01 382.59L1238.01 382.59" stroke="hsl(228.70000000000005, 36.1%, 92.5%)" stroke-width="1.5"></path><path d="M1238.01 382.59L1311.14 551.63" stroke="hsl(228.70000000000005, 36.1%, 92.5%)" stroke-width="1.5"></path><path d="M1311.14 551.63L1311.14 551.63" stroke="hsl(228.70000000000005, 36.1%, 92.5%)" stroke-width="1.5"></path><path d="M1311.14 551.63L1395.31 489.02" stroke="hsl(228.70000000000005, 36.1%, 92.5%)" stroke-width="1.5"></path><path d="M1263.2 683.77L1263.2 683.77" stroke="hsl(228.70000000000005, 36.1%, 92.5%)" stroke-width="1.5"></path><path d="M1263.2 683.77L1311.14 551.63" stroke="hsl(228.70000000000005, 36.1%, 92.5%)" stroke-width="1.5"></path><path d="M1263.2 683.77L1397.32 638.73" stroke="hsl(228.70000000000005, 36.1%, 92.5%)" stroke-width="1.5"></path><path d="M1263.2 683.77L1114.49 522.37" stroke="hsl(228.70000000000005, 36.1%, 92.5%)" stroke-width="1.5"></path><path d="M1389.14 -71.29L1389.14 -71.29" stroke="hsl(228.70000000000005, 36.1%, 92.5%)" stroke-width="1.5"></path><path d="M1462.23 68.66L1462.23 68.66" stroke="hsl(228.70000000000005, 36.1%, 92.5%)" stroke-width="1.5"></path><path d="M1462.23 68.66L1443.97 193.5" stroke="hsl(228.70000000000005, 36.1%, 92.5%)" stroke-width="1.5"></path><path d="M1462.23 68.66L1389.14 -71.29" stroke="hsl(228.70000000000005, 36.1%, 92.5%)" stroke-width="1.5"></path><path d="M1462.23 68.66L1546.53 -67.79" stroke="hsl(228.70000000000005, 36.1%, 92.5%)" stroke-width="1.5"></path><path d="M1443.97 193.5L1443.97 193.5" stroke="hsl(228.70000000000005, 36.1%, 92.5%)" stroke-width="1.5"></path><path d="M1443.97 193.5L1568.8 202.35" stroke="hsl(228.70000000000005, 36.1%, 92.5%)" stroke-width="1.5"></path><path d="M1443.97 193.5L1260.13 210.54" stroke="hsl(228.70000000000005, 36.1%, 92.5%)" stroke-width="1.5"></path><path d="M1443.97 193.5L1288.37 44.49" stroke="hsl(228.70000000000005, 36.1%, 92.5%)" stroke-width="1.5"></path><path d="M1395.31 489.02L1395.31 489.02" stroke="hsl(228.70000000000005, 36.1%, 92.5%)" stroke-width="1.5"></path><path d="M1395.31 489.02L1397.32 638.73" stroke="hsl(228.70000000000005, 36.1%, 92.5%)" stroke-width="1.5"></path><path d="M1395.31 489.02L1577.31 505.29" stroke="hsl(228.70000000000005, 36.1%, 92.5%)" stroke-width="1.5"></path><path d="M1395.31 489.02L1238.01 382.59" stroke="hsl(228.70000000000005, 36.1%, 92.5%)" stroke-width="1.5"></path><path d="M1546.53 -67.79L1546.53 -67.79" stroke="hsl(228.70000000000005, 36.1%, 92.5%)" stroke-width="1.5"></path><path d="M1546.53 -67.79L1389.14 -71.29" stroke="hsl(228.70000000000005, 36.1%, 92.5%)" stroke-width="1.5"></path><path d="M1568.8 202.35L1568.8 202.35" stroke="hsl(228.70000000000005, 36.1%, 92.5%)" stroke-width="1.5"></path><path d="M1568.8 202.35L1602.04 348.15" stroke="hsl(228.70000000000005, 36.1%, 92.5%)" stroke-width="1.5"></path><path d="M1568.8 202.35L1462.23 68.66" stroke="hsl(228.70000000000005, 36.1%, 92.5%)" stroke-width="1.5"></path><path d="M1568.8 202.35L1399.24 345.37" stroke="hsl(228.70000000000005, 36.1%, 92.5%)" stroke-width="1.5"></path><path d="M1568.8 202.35L1546.53 -67.79" stroke="hsl(228.70000000000005, 36.1%, 92.5%)" stroke-width="1.5"></path><path d="M1602.04 348.15L1602.04 348.15" stroke="hsl(228.70000000000005, 36.1%, 92.5%)" stroke-width="1.5"></path><path d="M1602.04 348.15L1577.31 505.29" stroke="hsl(228.70000000000005, 36.1%, 92.5%)" stroke-width="1.5"></path><path d="M1602.04 348.15L1399.24 345.37" stroke="hsl(228.70000000000005, 36.1%, 92.5%)" stroke-width="1.5"></path><path d="M1602.04 348.15L1443.97 193.5" stroke="hsl(228.70000000000005, 36.1%, 92.5%)" stroke-width="1.5"></path><path d="M1577.31 505.29L1577.31 505.29" stroke="hsl(228.70000000000005, 36.1%, 92.5%)" stroke-width="1.5"></path><path d="M1577.31 505.29L1397.32 638.73" stroke="hsl(228.70000000000005, 36.1%, 92.5%)" stroke-width="1.5"></path><path d="M1577.31 505.29L1399.24 345.37" stroke="hsl(228.70000000000005, 36.1%, 92.5%)" stroke-width="1.5"></path><circle r="25" cx="205.64" cy="684.36" fill="url(#SvgjsRadialGradient1025)"></circle><circle r="25" cx="802.99" cy="684.18" fill="url(#SvgjsRadialGradient1025)"></circle><circle r="25" cx="1399.24" cy="345.37" fill="url(#SvgjsRadialGradient1025)"></circle><circle r="25" cx="1397.32" cy="638.73" fill="url(#SvgjsRadialGradient1025)"></circle><circle r="25" cx="1603.07" cy="102.16" fill="url(#SvgjsRadialGradient1025)"></circle><circle r="5" cx="-64.96" cy="501.68" fill="#cdd2e8"></circle><circle r="5" cx="-79.86" cy="638.6" fill="#cdd2e8"></circle><circle r="5" cx="55.3" cy="556.11" fill="#cdd2e8"></circle><circle r="5" cx="216.97" cy="510.62" fill="#cdd2e8"></circle><circle r="5" cx="369.93" cy="522.37" fill="#cdd2e8"></circle><circle r="5" cx="400.88" cy="684.2" fill="#cdd2e8"></circle><circle r="5" cx="518.9" cy="533.08" fill="#cdd2e8"></circle><circle r="5" cx="552.68" cy="683.26" fill="#cdd2e8"></circle><circle r="5" cx="666.64" cy="406.48" fill="#cdd2e8"></circle><circle r="5" cx="680.98" cy="503.65" fill="#cdd2e8"></circle><circle r="5" cx="670.71" cy="638.88" fill="#cdd2e8"></circle><circle r="5" cx="850.71" cy="507.7" fill="#cdd2e8"></circle><circle r="5" cx="993.51" cy="408.75" fill="#cdd2e8"></circle><circle r="5" cx="987.85" cy="518.23" fill="#cdd2e8"></circle><circle r="5" cx="1100.54" cy="221.79" fill="#cdd2e8"></circle><circle r="5" cx="1102.01" cy="362.46" fill="#cdd2e8"></circle><circle r="5" cx="1114.49" cy="522.37" fill="#cdd2e8"></circle><circle r="5" cx="1107.57" cy="688.07" fill="#cdd2e8"></circle><circle r="5" cx="1274.95" cy="-99.83" fill="#cdd2e8"></circle><circle r="5" cx="1288.37" cy="44.49" fill="#cdd2e8"></circle><circle r="5" cx="1260.13" cy="210.54" fill="#cdd2e8"></circle><circle r="5" cx="1238.01" cy="382.59" fill="#cdd2e8"></circle><circle r="5" cx="1311.14" cy="551.63" fill="#cdd2e8"></circle><circle r="5" cx="1263.2" cy="683.77" fill="#cdd2e8"></circle><circle r="5" cx="1389.14" cy="-71.29" fill="#cdd2e8"></circle><circle r="5" cx="1462.23" cy="68.66" fill="#cdd2e8"></circle><circle r="5" cx="1443.97" cy="193.5" fill="#cdd2e8"></circle><circle r="5" cx="1395.31" cy="489.02" fill="#cdd2e8"></circle><circle r="5" cx="1546.53" cy="-67.79" fill="#cdd2e8"></circle><circle r="5" cx="1568.8" cy="202.35" fill="#cdd2e8"></circle><circle r="5" cx="1602.04" cy="348.15" fill="#cdd2e8"></circle><circle r="5" cx="1577.31" cy="505.29" fill="#cdd2e8"></circle></g><defs><mask id="SvgjsMask1024"><rect width="1440" height="560" fill="#ffffff"></rect></mask><radialGradient id="SvgjsRadialGradient1025"><stop stop-color="#ffffff" offset="0.1"></stop><stop stop-color="rgba(155, 165, 208, 1)" offset="0.2"></stop><stop stop-color="rgba(155, 165, 208, 0)" offset="1"></stop></radialGradient></defs></svg>